<svg width="73" height="83" viewBox="0 0 73 83" fill="none" xmlns="http://www.w3.org/2000/svg">
<path d="M43.8 83L43.5177 72.0903H36.5C26.3546 72.0903 17.7358 68.5883 10.6434 61.5844C3.55105 54.5804 0.00324667 46.0673 2.22324e-06 36.0452C-0.00324222 26.023 3.54456 17.5115 10.6434 10.5108C17.7422 3.51 26.3611 0.00640803 36.5 0C41.5743 0 46.3242 0.938776 50.7496 2.81633C55.175 4.69068 59.0408 7.2603 62.3469 10.5252C65.653 13.7901 68.255 17.6061 70.153 21.9731C72.051 26.3466 73 31.0373 73 36.0452C73 40.9441 72.2716 45.6492 70.8149 50.1604C69.3581 54.6717 67.3433 58.9346 64.7705 62.9493C62.1976 66.9639 59.1154 70.6645 55.5238 74.0512C51.9322 77.4378 48.0243 80.4192 43.8 82.9952M48.6667 73.7724C54.4256 68.9664 59.1105 63.3402 62.7216 56.8937C66.3327 50.4472 68.1366 43.4977 68.1333 36.0452C68.1333 27.3142 65.0706 19.9258 58.9451 13.8798C52.8196 7.83382 45.3379 4.80923 36.5 4.80602C27.6621 4.80282 20.1804 7.82741 14.0549 13.8798C7.92943 19.9322 4.86667 27.3206 4.86667 36.0452C4.86667 44.7697 7.92943 52.1598 14.0549 58.2153C20.1804 64.2709 27.6621 67.2939 36.5 67.2843H48.6667V73.7724Z" fill="#DB0C1F"/>
<path fill-rule="evenodd" clip-rule="evenodd" d="M27.6198 20.0155C28.7185 20.1227 29.6064 20.7633 30.3083 21.622L30.5987 22.0014L30.6023 22.0069L33.9189 26.7266L33.928 26.7393C34.5717 27.676 34.9987 28.6696 34.8519 29.7618C34.712 30.8022 34.0834 31.6163 33.4505 32.2923L33.4523 32.2941L32.6554 33.1673C33.1203 33.934 34.2852 35.3298 35.6525 36.698C37.0675 38.112 38.4189 39.2319 39.234 39.7295L40.0564 38.9453C40.7249 38.2927 41.5444 37.6612 42.5887 37.5112C43.686 37.3539 44.6914 37.7694 45.6275 38.4334L45.6293 38.4352C46.4249 39.001 47.2233 39.5627 48.0237 40.1216L50.4326 41.7899L50.4489 41.8008L50.467 41.8135C51.4087 42.5013 52.2539 43.4557 52.4185 44.6943C52.5893 45.9816 51.9708 47.1173 50.9862 48.029C50.8717 48.144 50.7597 48.2696 50.6213 48.4211L50.1675 48.9022C47.2641 51.791 43.4284 51.8835 39.746 50.5741C36.0889 49.2736 32.3326 46.5316 29.0884 43.2875C25.8431 40.0545 23.1007 36.2976 21.8036 32.6372C20.4972 28.9501 20.5981 25.1075 23.5009 22.2047C23.6544 22.0513 23.8121 21.8998 23.9566 21.7618C24.1053 21.6197 24.2414 21.4915 24.3686 21.3643L24.3814 21.3497L24.3941 21.337C25.2681 20.5088 26.3646 19.8933 27.6198 20.0155ZM27.3493 22.7893C27.2279 22.7774 26.8977 22.8105 26.3255 23.3484C26.1762 23.4973 26.0229 23.6445 25.8826 23.7786C25.7342 23.9204 25.5993 24.0492 25.4723 24.1761C23.6039 26.0446 23.334 28.6066 24.4322 31.706C25.4703 34.6357 27.6771 37.818 30.488 40.7334L31.058 41.3143L31.0598 41.3161C34.1423 44.3985 37.5559 46.8366 40.679 47.9473C43.7769 49.049 46.333 48.7827 48.1998 46.9253C48.313 46.8125 48.4261 46.6902 48.5628 46.5405C48.6924 46.3985 48.8479 46.2288 49.013 46.0631L49.0384 46.0377L49.0638 46.0141C49.6817 45.4543 49.6663 45.1415 49.6556 45.061C49.6356 44.912 49.4909 44.5625 48.8551 44.0899L46.428 42.4089C45.6209 41.8452 44.816 41.2785 44.0137 40.708C43.3696 40.2513 43.0861 40.2577 42.9844 40.2723C42.836 40.2937 42.5482 40.4078 41.9951 40.9494L41.9824 40.9621L40.886 42.0095L40.8678 42.0259C39.9215 42.8977 38.6963 42.6323 38.0487 42.2691C36.898 41.6336 35.2286 40.2158 33.6811 38.6694C32.2168 37.2041 30.726 35.4699 30.1177 34.349C29.9708 34.095 29.7787 33.6837 29.7473 33.1836C29.7143 32.6539 29.8695 32.0536 30.3446 31.5644L31.3902 30.4171L31.4047 30.4008C31.9653 29.8041 32.0706 29.527 32.0891 29.3897C32.1015 29.2957 32.1065 29.0156 31.6371 28.3295L28.3242 23.6152C27.817 22.9011 27.4713 22.8012 27.3493 22.7893Z" fill="#DB0C1F"/>
</svg>
