<svg width="20" height="20" viewBox="0 0 20 20" fill="none" xmlns="http://www.w3.org/2000/svg">
<path fill-rule="evenodd" clip-rule="evenodd" d="M10 0C15.5222 0 20 4.47778 20 10C20 15.5222 15.5222 20 10 20C4.47778 20 0 15.5222 0 10C1.47297e-07 4.47778 4.47778 1.47316e-07 10 0ZM10 1.33333C5.21416 1.33333 1.33333 5.21416 1.33333 10C1.33333 14.7858 5.21416 18.6667 10 18.6667C14.7858 18.6667 18.6667 14.7858 18.6667 10C18.6667 5.21416 14.7858 1.33333 10 1.33333Z" fill="black"/>
<path d="M9.288 11.713C9.096 11.521 9 11.2833 9 11V4C9 3.71667 9.096 3.47934 9.288 3.288C9.48 3.09667 9.71733 3.00067 10 3C10.2827 2.99934 10.5203 3.09534 10.713 3.288C10.9057 3.48067 11.0013 3.718 11 4V11C11 11.2833 10.904 11.521 10.712 11.713C10.52 11.905 10.2827 12.0007 10 12C9.71733 11.9993 9.48 11.9033 9.288 11.712M9.288 15.712C9.096 15.5213 9 15.284 9 15C9 14.716 9.096 14.4787 9.288 14.288C9.48 14.0973 9.71733 14.0013 10 14C10.2827 13.9987 10.5203 14.0947 10.713 14.288C10.9057 14.4813 11.0013 14.7187 11 15C10.9987 15.2813 10.9027 15.519 10.712 15.713C10.5213 15.907 10.284 16.0027 10 16C9.716 15.9973 9.47867 15.9013 9.288 15.712Z" fill="#DB0C1F"/>
</svg>
