<svg width="30" height="30" viewBox="0 0 30 30" fill="none" xmlns="http://www.w3.org/2000/svg">
<path d="M11.8421 4.875V5.25H18.1579V4.875C18.1579 4.07935 17.8252 3.31629 17.233 2.75368C16.6407 2.19107 15.8375 1.875 15 1.875C14.1625 1.875 13.3593 2.19107 12.767 2.75368C12.1748 3.31629 11.8421 4.07935 11.8421 4.875ZM9.86842 5.25V4.875C9.86842 3.58207 10.4091 2.34209 11.3714 1.42785C12.3338 0.513614 13.639 0 15 0C16.361 0 17.6662 0.513614 18.6286 1.42785C19.5909 2.34209 20.1316 3.58207 20.1316 4.875V5.25H29.0132C29.2749 5.25 29.5259 5.34877 29.711 5.52459C29.896 5.7004 30 5.93886 30 6.1875C30 6.43614 29.896 6.6746 29.711 6.85041C29.5259 7.02623 29.2749 7.125 29.0132 7.125H26.7103L25.1313 25.017C25.0114 26.3757 24.3584 27.642 23.302 28.565C22.2455 29.4879 20.8626 30.0001 19.4274 30H10.5726C9.13752 29.9999 7.75482 29.4876 6.69853 28.5647C5.64223 27.6418 4.98943 26.3756 4.86947 25.017L3.29053 7.125H0.986842C0.725115 7.125 0.474108 7.02623 0.289039 6.85041C0.103971 6.6746 0 6.43614 0 6.1875C0 5.93886 0.103971 5.7004 0.289039 5.52459C0.474108 5.34877 0.725115 5.25 0.986842 5.25H9.86842ZM6.83605 24.8602C6.91464 25.7504 7.34234 26.58 8.0344 27.1846C8.72646 27.7893 9.63238 28.1249 10.5726 28.125H19.4274C20.3678 28.1251 21.2739 27.7896 21.9661 27.1849C22.6583 26.5802 23.0861 25.7505 23.1647 24.8602L24.7295 7.125H5.27053L6.83605 24.8602ZM13.0263 12.1875C13.0263 12.0644 13.0008 11.9425 12.9512 11.8287C12.9016 11.715 12.8289 11.6116 12.7373 11.5246C12.6456 11.4375 12.5369 11.3685 12.4171 11.3214C12.2974 11.2742 12.1691 11.25 12.0395 11.25C11.9099 11.25 11.7816 11.2742 11.6618 11.3214C11.5421 11.3685 11.4333 11.4375 11.3417 11.5246C11.25 11.6116 11.1773 11.715 11.1278 11.8287C11.0782 11.9425 11.0526 12.0644 11.0526 12.1875V23.0625C11.0526 23.1856 11.0782 23.3075 11.1278 23.4213C11.1773 23.535 11.25 23.6384 11.3417 23.7254C11.4333 23.8125 11.5421 23.8815 11.6618 23.9286C11.7816 23.9758 11.9099 24 12.0395 24C12.1691 24 12.2974 23.9758 12.4171 23.9286C12.5369 23.8815 12.6456 23.8125 12.7373 23.7254C12.8289 23.6384 12.9016 23.535 12.9512 23.4213C13.0008 23.3075 13.0263 23.1856 13.0263 23.0625V12.1875ZM17.9605 11.25C18.5053 11.25 18.9474 11.67 18.9474 12.1875V23.0625C18.9474 23.3111 18.8434 23.5496 18.6583 23.7254C18.4733 23.9012 18.2223 24 17.9605 24C17.6988 24 17.4478 23.9012 17.2627 23.7254C17.0777 23.5496 16.9737 23.3111 16.9737 23.0625V12.1875C16.9737 11.67 17.4158 11.25 17.9605 11.25Z" fill="#DB0C1F"/>
</svg>
